<svg width="110" height="42" viewBox="0 0 110 42" fill="none" xmlns="http://www.w3.org/2000/svg">
<g clip-path="url(#clip0_835_6875)">
<path d="M109.349 32.3842C109.406 33.6091 109.213 34.8328 108.783 35.9812C108.352 37.1297 107.693 38.1791 106.844 39.066C105.996 39.9528 104.976 40.6588 103.847 41.1411C102.717 41.6234 101.502 41.8721 100.273 41.8721C99.0445 41.8721 97.8287 41.6234 96.6993 41.1411C95.5698 40.6588 94.55 39.9528 93.7016 39.066C92.8533 38.1791 92.1939 37.1297 91.7635 35.9812C91.333 34.8328 91.1404 33.6091 91.1972 32.3842C91.1969 31.6498 91.2851 30.918 91.4601 30.2046C91.5983 29.6475 91.7907 29.1052 92.0344 28.5853C92.795 26.9502 94.0248 25.5773 95.568 24.6406C94.6535 25.6755 93.9876 26.905 93.6211 28.2355C93.5789 28.3975 93.5368 28.5594 93.5043 28.7246C94.1877 28.4177 94.9328 28.2726 95.6816 28.3003C96.5331 28.2909 97.3762 28.469 98.1509 28.8217C98.9379 29.1991 99.697 29.6321 100.422 30.1172C101.177 30.6262 101.98 31.0601 102.82 31.4126C103.875 31.8272 105.029 31.9205 106.137 31.6807C107.244 31.4409 108.256 30.8788 109.044 30.0654C109.247 30.8216 109.35 31.6013 109.349 32.3842Z" fill="#F9006E"/>
<path d="M18.4266 19.447V18.0803H18.3714C17.8166 19.1458 16.405 19.7871 14.8021 19.7871C11.2003 19.7871 8.69531 16.9598 8.69531 13.2742C8.69531 9.67927 11.3107 6.79688 14.8021 6.79688C16.2947 6.79688 17.6803 7.38631 18.3714 8.50688H18.4168V7.12398H21.8174V19.4308L18.4266 19.447ZM18.6213 13.2774C18.6221 12.8253 18.5336 12.3776 18.3608 11.9597C18.1879 11.5418 17.9342 11.1621 17.6141 10.8423C17.2939 10.5225 16.9137 10.2689 16.4952 10.096C16.0767 9.92308 15.6282 9.8343 15.1753 9.83473C13.3192 9.83473 11.8525 11.3731 11.8525 13.3228C11.8555 13.7663 11.946 14.205 12.1189 14.6137C12.2917 15.0224 12.5435 15.3931 12.8599 15.7047C13.1762 16.0162 13.551 16.2625 13.9627 16.4295C14.3745 16.5965 14.8152 16.681 15.2596 16.678C15.7041 16.675 16.1436 16.5847 16.553 16.4122C16.9625 16.2397 17.3339 15.9884 17.6461 15.6726C17.9582 15.3568 18.205 14.9828 18.3723 14.5718C18.5397 14.1608 18.6243 13.721 18.6213 13.2774V13.2774Z" fill="grey"/>
<path d="M27.1603 19.4481L22.7344 7.125H26.56L28.9158 14.8071H29.104L31.476 7.125H35.3016L30.827 19.4481H27.1603Z" fill="grey"/>
<path d="M66.0152 19.4499V9.90233H64.0391V7.1268H66.0152V3.02344H69.406V7.1268H71.3335V9.89909H69.406V19.4499H66.0152Z" fill="grey"/>
<path d="M41.4672 6.79688C37.8038 6.79688 34.8672 9.50762 34.8672 13.2968C34.8672 17.0861 37.7356 19.7968 41.4672 19.7968C45.1988 19.7968 48.0672 17.0861 48.0672 13.2547C48.0672 9.54325 45.1533 6.79688 41.4672 6.79688ZM41.4672 16.7654C39.7117 16.7654 38.2224 15.2206 38.2224 13.3325C38.2224 11.3893 39.6923 9.83149 41.425 9.83149C42.3165 9.86268 43.1605 10.2399 43.7775 10.8829C44.3944 11.5259 44.7356 12.3839 44.7283 13.2742C44.7283 15.2368 43.2324 16.7557 41.4542 16.7557L41.4672 16.7654Z" fill="grey"/>
<path d="M56.0525 6.79891C54.2808 6.773 53.3398 7.31386 52.6909 8.53159H52.6487V7.12278H49.2578V19.4296H52.8888V14.5522C52.905 11.8609 53.515 10.193 55.7864 10.193C56.5157 10.1799 57.2318 10.3876 57.8404 10.7889V7.17459C57.2834 6.90769 56.6701 6.77882 56.0525 6.79891Z" fill="grey"/>
<path d="M84.17 13.19C84.17 9.38779 81.6391 6.79688 77.9464 6.79688C74.3187 6.79688 71.7812 9.71166 71.7812 13.2742C71.7812 16.9403 74.4647 19.8065 78.0243 19.8065C79.1068 19.8066 80.176 19.568 81.1553 19.1078C82.1347 18.6476 83.0002 17.9771 83.6898 17.1444L80.7922 15.4765C80.4364 15.8543 80.0072 16.1557 79.5307 16.3623C79.0543 16.5689 78.5406 16.6763 78.0211 16.678H77.9984C76.4863 16.678 75.3051 15.7453 75.1072 14.3462H84.1084C84.151 13.9623 84.1716 13.5762 84.17 13.19ZM75.1624 11.8556C75.4512 10.5602 76.6096 9.77643 77.9464 9.77643C79.3709 9.77643 80.4839 10.5893 80.7727 11.8556H75.1624Z" fill="grey"/>
<path d="M5.84018 7.12868V6.48095C5.84018 4.46975 7.01481 3.68276 8.59505 3.68276V0.651384C4.57794 0.47002 2.42985 2.59457 2.42985 6.03726V7.12868H0.648438V9.90096H2.42012V19.4517H5.81422V9.9042H8.58207V7.12868H5.84018Z" fill="grey"/>
<path d="M59.2622 19.4493V7.12621H62.6531V19.4331L59.2622 19.4493ZM62.9094 3.95881C62.9094 4.47418 62.7043 4.96844 62.3392 5.33286C61.9741 5.69727 61.4789 5.902 60.9625 5.902C60.4462 5.902 59.951 5.69727 59.5859 5.33286C59.2207 4.96844 59.0156 4.47418 59.0156 3.95881C59.0156 3.44345 59.2207 2.94919 59.5859 2.58477C59.951 2.22035 60.4462 2.01563 60.9625 2.01562C61.4789 2.01563 61.9741 2.22035 62.3392 2.58477C62.7043 2.94919 62.9094 3.44345 62.9094 3.95881V3.95881Z" fill="grey"/>
<path d="M34.4982 34.656C34.4982 30.8344 31.9704 28.25 28.2746 28.25C24.6468 28.25 22.1094 31.1648 22.1094 34.7273C22.1094 38.3902 24.7929 41.2564 28.3557 41.2564C29.4382 41.2565 30.5073 41.0179 31.4867 40.5577C32.4661 40.0975 33.3315 39.427 34.0212 38.5942L31.1462 36.9231C30.7904 37.2997 30.3615 37.6001 29.8857 37.8061C29.4099 38.0121 28.897 38.1194 28.3784 38.1214H28.3557C26.8403 38.1214 25.6625 37.1887 25.4613 35.7896H34.4657C34.4963 35.4126 34.5072 35.0342 34.4982 34.656ZM25.4937 33.3185C25.7825 32.023 26.9409 31.2393 28.2746 31.2393C29.699 31.2393 30.812 32.0522 31.1008 33.3185H25.4937Z" fill="grey"/>
<path d="M51.0278 40.8877V28.5809H54.4219V40.8877H51.0278ZM54.675 25.394C54.6788 25.7792 54.5679 26.1567 54.3564 26.4788C54.1448 26.8009 53.8421 27.053 53.4867 27.2031C53.1313 27.3532 52.7392 27.3944 52.3603 27.3216C51.9814 27.2489 51.6326 27.0654 51.3584 26.7944C51.0842 26.5234 50.8968 26.1772 50.8201 25.7998C50.7434 25.4223 50.7808 25.0306 50.9276 24.6744C51.0743 24.3182 51.3238 24.0135 51.6444 23.7992C51.965 23.5848 52.3422 23.4703 52.7281 23.4703C52.9848 23.4599 53.241 23.5025 53.4806 23.5952C53.7202 23.688 53.9381 23.829 54.1208 24.0095C54.3034 24.1899 54.4469 24.406 54.5422 24.6442C54.6376 24.8824 54.6827 25.1376 54.675 25.394Z" fill="grey"/>
<path d="M17.4195 40.8918V34.0906C17.4195 32.115 16.7056 31.3896 15.4077 31.3896C13.9767 31.4155 13.3051 32.2608 13.3051 33.919V40.8918H9.92069V33.9416C9.92069 32.3223 9.27173 31.3993 7.97379 31.3993C6.4909 31.4155 5.84193 32.3515 5.84193 34.1003V40.9015H2.42188V28.5946H5.644V29.6472H5.68943C6.47468 28.627 7.55521 28.2578 9.17114 28.2578C10.5372 28.2578 11.7086 28.6918 12.5036 30.1233C13.4154 28.6918 14.775 28.2578 16.511 28.2578C19.3307 28.2578 20.8104 29.6019 20.8104 33.1158V40.908L17.4195 40.8918Z" fill="grey"/>
<path d="M84.9742 40.8918V34.0906C84.9742 32.115 84.2603 31.3896 82.9624 31.3896C81.5282 31.3896 80.8695 32.2511 80.8695 33.9093V40.8821H77.4754V33.9416C77.4754 32.3223 76.8264 31.3993 75.5285 31.3993C74.0521 31.3993 73.3901 32.3515 73.3901 34.1003V40.9015H69.9766V28.5946H73.1987V29.6472H73.2441C74.0294 28.627 75.1099 28.2578 76.7226 28.2578C78.0919 28.2578 79.2633 28.6918 80.0583 30.1233C80.9701 28.6918 82.3297 28.2578 84.0624 28.2578C86.8854 28.2578 88.3651 29.6019 88.3651 33.1158V40.908L84.9742 40.8918Z" fill="grey"/>
<path d="M64.4971 40.8901V39.5105H64.4517C63.9163 40.6408 62.7903 41.2172 61.1225 41.2172C58.5266 41.2172 56.6641 39.6659 56.6641 36.1585V28.5703H60.0549V35.4168C60.0549 37.0361 60.6325 38.1664 62.0343 38.1664C63.436 38.1664 64.3057 36.871 64.3057 35.3488V28.5703H67.6868V40.8772L64.4971 40.8901Z" fill="grey"/>
<path d="M45.1321 29.6904C44.6735 29.2191 44.1224 28.8473 43.5133 28.5982C42.9042 28.3491 42.2501 28.2281 41.592 28.2427C38.0227 28.2427 35.5469 31.0733 35.5469 34.72C35.5469 38.3667 37.9643 41.2362 41.6601 41.2362C43.3961 41.2362 44.6259 40.6435 45.3073 39.5262H45.3528V40.8961H48.7371V23.5078H45.197L45.1775 29.6904H45.1321ZM42.2669 38.2178C41.8204 38.2152 41.3787 38.1247 40.9673 37.9515C40.5558 37.7783 40.1827 37.5258 39.8692 37.2084C39.5557 36.891 39.308 36.5149 39.1404 36.1018C38.9728 35.6887 38.8885 35.2467 38.8923 34.801C38.8923 32.8578 40.359 31.3097 42.2183 31.3097C42.6711 31.3093 43.1195 31.3979 43.538 31.5706C43.9565 31.7433 44.3367 31.9965 44.6571 32.316C44.9774 32.6354 45.2315 33.0147 45.4049 33.4322C45.5783 33.8497 45.6675 34.2972 45.6675 34.7492C45.6779 35.2012 45.5976 35.6508 45.4313 36.0714C45.265 36.492 45.0161 36.8752 44.6993 37.1984C44.3824 37.5216 44.004 37.7783 43.5863 37.9534C43.1686 38.1284 42.72 38.2183 42.2669 38.2178V38.2178Z" fill="grey"/>
</g>
<defs>
<clipPath id="clip0_835_6875">
<rect width="110" height="42" fill="grey"/>
</clipPath>
</defs>
</svg>
